<svg id="Layer_1" enable-background="new 0 0 256 256" height="512" viewBox="0 0 256 256" width="512" xmlns="http://www.w3.org/2000/svg"><circle cx="128" cy="128" fill="#f4efed" r="124"/><path d="m128 4c-1.675 0-3.341.043-5 .109 66.164 2.625 119 57.083 119 123.891s-52.836 121.266-119 123.891c1.659.066 3.325.109 5 .109 68.483 0 124-55.517 124-124s-55.517-124-124-124z" fill="#d6d1cf"/><path d="m128 252c1.676 0 3.341-.043 5-.109-66.164-2.625-119-57.083-119-123.891s52.836-121.266 119-123.891c-1.659-.066-3.324-.109-5-.109-68.483 0-124 55.517-124 124s55.517 124 124 124z" fill="#fff"/><path d="m217.956 185.158c-.02-15.453-12.563-27.965-28.016-27.945h-14.305-25.643v-41.417h-21.992-21.992v41.417h-25.642-14.305c-15.453-.02-27.997 12.492-28.016 27.945v28.184c22.595 23.809 54.54 38.658 89.955 38.658s67.36-14.849 89.956-38.658z" fill="#7bac51"/><path d="m217.956 213.342v-28.184c-.02-15.453-12.563-27.965-28.016-27.945h-9.216c15.453-.02 27.997 12.492 28.016 27.945v36.95c3.219-2.764 6.296-5.689 9.216-8.766z" fill="#5d8e33"/><path d="m38.044 185.158v28.184c2.92 3.076 5.997 6.001 9.216 8.766v-36.95c.02-15.453 12.563-27.965 28.016-27.945h-9.216c-15.453-.019-27.996 12.492-28.016 27.945z" fill="#99ca6f"/><path d="m128 193.446c-12.146 0-21.992-9.846-21.992-21.992v-55.658h43.984v55.658c0 12.146-9.846 21.992-21.992 21.992z" fill="#ff9f70"/><g fill="#690589"><path d="m49.178 204.921c-1.104 0-2-.896-2-2v-12c0-1.104.896-2 2-2s2 .896 2 2v12c0 1.105-.896 2-2 2z"/><path d="m128 195.446c-13.229 0-23.992-10.763-23.992-23.992v-55.657c0-1.104.896-2 2-2h43.984c1.104 0 2 .896 2 2v55.657c0 13.23-10.763 23.992-23.992 23.992zm-19.992-77.649v53.657c0 11.024 8.969 19.992 19.992 19.992s19.992-8.968 19.992-19.992v-53.657z"/><path d="m128 254c-34.904 0-67.366-13.95-91.407-39.281-.353-.372-.549-.865-.549-1.377v-28.184c.021-16.521 13.468-29.945 29.98-29.945h.039 37.944v-39.417c0-1.104.896-2 2-2h43.984c1.104 0 2 .896 2 2v39.417h37.947.038c16.512 0 29.957 13.423 29.979 29.942v.002 28.184c0 .512-.196 1.005-.549 1.377-24.04 25.332-56.502 39.282-91.406 39.282zm-87.956-41.459c23.221 24.161 54.426 37.459 87.956 37.459s64.735-13.298 87.956-37.459v-27.38c-.019-14.314-11.671-25.947-25.98-25.947-.012 0-.022 0-.033 0h-39.95c-1.104 0-2-.896-2-2v-39.417h-39.984v39.417c0 1.104-.896 2-2 2h-39.948c-.011 0-.022 0-.033 0-14.313 0-25.965 11.632-25.983 25.947v27.38z"/><path d="m128 254c-34.904 0-67.366-13.95-91.407-39.281-.353-.372-.549-.865-.549-1.377v-28.184c.021-16.521 13.468-29.945 29.98-29.945h.039 37.944v-39.417c0-1.104.896-2 2-2h43.984c1.104 0 2 .896 2 2v39.417h37.947.038c16.512 0 29.957 13.423 29.979 29.942v.002 28.184c0 .512-.196 1.005-.549 1.377-24.04 25.332-56.502 39.282-91.406 39.282zm-87.956-41.459c23.221 24.161 54.426 37.459 87.956 37.459s64.735-13.298 87.956-37.459v-27.38c-.019-14.314-11.671-25.947-25.98-25.947-.012 0-.022 0-.033 0h-39.95c-1.104 0-2-.896-2-2v-39.417h-39.984v39.417c0 1.104-.896 2-2 2h-39.948c-.011 0-.022 0-.033 0-14.313 0-25.965 11.632-25.983 25.947v27.38z"/></g><path d="m82.122 75.184h-3.276c-8.467 0-15.332 6.864-15.332 15.332s6.864 15.332 15.332 15.332h3.276z" fill="#ffbd8e"/><path d="m177.154 75.184h-3.276v30.663h3.276c8.467 0 15.331-6.864 15.331-15.332.001-8.467-6.864-15.331-15.331-15.331z" fill="#e18152"/><path d="m128 153.123c-25.338 0-45.878-20.807-45.878-46.474v-32.175c0-25.667 20.54-46.474 45.878-46.474 25.338 0 45.879 20.807 45.879 46.474v32.174c-.001 25.668-20.541 46.475-45.879 46.475z" fill="#ff9f70"/><path d="m128 28c-1.764 0-3.501.111-5.213.307 22.882 2.623 40.665 22.287 40.665 46.167v32.174c0 23.88-17.783 43.543-40.665 46.167 1.712.196 3.449.307 5.213.307 25.338 0 45.879-20.807 45.879-46.474v-32.174c-.001-25.667-20.541-46.474-45.879-46.474z" fill="#e18152"/><path d="m128 28c1.764 0 3.502.111 5.213.307-22.882 2.623-40.665 22.287-40.665 46.167v32.174c0 23.88 17.783 43.543 40.665 46.167-1.712.196-3.449.307-5.213.307-25.338 0-45.878-20.807-45.878-46.474v-32.174c0-25.667 20.54-46.474 45.878-46.474z" fill="#ffbd8e"/><path d="m128 155.123c-26.4 0-47.878-21.746-47.878-48.474v-32.175c0-26.728 21.478-48.474 47.878-48.474s47.879 21.746 47.879 48.474v32.175c0 26.728-21.479 48.474-47.879 48.474zm0-125.123c-24.194 0-43.878 19.951-43.878 44.474v32.175c0 24.523 19.684 44.474 43.878 44.474 24.195 0 43.879-19.951 43.879-44.474v-32.175c0-24.523-19.684-44.474-43.879-44.474z" fill="#690589"/><path d="m82.122 107.848h-3.276c-9.557 0-17.331-7.775-17.331-17.332s7.774-17.332 17.331-17.332h3.276c1.104 0 2 .896 2 2v30.664c0 1.104-.895 2-2 2zm-3.276-30.664c-7.351 0-13.331 5.98-13.331 13.332s5.98 13.332 13.331 13.332h1.276v-26.664z" fill="#690589"/><path d="m177.154 107.848h-3.275c-1.104 0-2-.896-2-2v-30.664c0-1.104.896-2 2-2h3.275c9.557 0 17.331 7.775 17.331 17.332s-7.774 17.332-17.331 17.332zm-1.275-4h1.275c7.351 0 13.331-5.981 13.331-13.332s-5.98-13.332-13.331-13.332h-1.275z" fill="#690589"/><path d="m128 254c-69.477 0-126-56.523-126-126s56.523-126 126-126 126 56.523 126 126-56.523 126-126 126zm0-248c-67.271 0-122 54.729-122 122s54.729 122 122 122 122-54.729 122-122-54.729-122-122-122z" fill="#690589"/></svg>